#N canvas 542 63 826 644 10;
#X obj 18 230 gemwin;
#X msg 18 133 create \, 1;
#X msg 26 159 0 \, destroy;
#X msg 36 207 frame \$1;
#X floatatom 36 185 5 0 0 0 - - -;
#X obj 109 418 pix_texture;
#X obj 109 396 pix_chroma_key;
#X msg 138 373 direction \$1;
#X obj 138 353 tgl 15 1 empty empty empty 0 -6 0 8 -262144 -1 -1 1
1;
#X floatatom 130 254 5 0 255 0 - - -;
#X floatatom 141 311 5 0 255 0 - - -;
#X obj 134 292 hsl 100 15 0 1 0 1 empty empty empty -2 -8 0 10 -262144
-1 -1 4500 1;
#X obj 125 235 hsl 100 15 0 1 0 1 empty empty empty -2 -8 0 10 -262144
-1 -1 9200 1;
#X msg 122 271 value \$1 \$1 \$1;
#X msg 131 329 range \$1 \$1 \$1;
#X obj 109 105 gemhead;
#X obj 109 442 rectangle 4 3;
#X obj 282 133 gemhead;
#X obj 109 176 pix_info;
#X obj 282 335 pix_resize;
#X obj 296 239 pack f f;
#X msg 296 259 dimen \$1 \$2;
#X obj 109 213 pix_yuv;
#N canvas 729 458 763 507 bgs 0;
#X obj 108 16 inlet;
#X obj 110 242 outlet;
#X obj 109 72 pix_rgba;
#X obj 108 45 pix_video;
#X obj 109 111 pix_grey;
#X msg 134 139 reset;
#X obj 109 168 pix_background;
#X msg 202 147 \$1 \$1 \$1;
#X floatatom 202 131 5 0 0 0 - - -;
#X text 244 128 Configura el umbral del ruido;
#X connect 0 0 3 0;
#X connect 2 0 4 0;
#X connect 3 0 2 0;
#X connect 4 0 6 0;
#X connect 5 0 6 0;
#X connect 6 0 1 0;
#X connect 7 0 6 1;
#X connect 8 0 7 0;
#X restore 109 132 pd bgs;
#X obj 282 363 pix_yuv;
#X obj 282 153 pix_image alive.jpg;
#X obj 66 -73 bng 22 250 50 0 empty empty empty 17 7 0 10 -262144 -1
-1;
#N canvas 0 0 450 300 player 0;
#X obj 110 -41 openpanel;
#X obj 110 85 soundfiler;
#X msg 110 28 read -resize \$1 file1;
#X obj 111 -72 inlet;
#X connect 0 0 2 0;
#X connect 2 0 1 0;
#X connect 3 0 0 0;
#X restore 66 -39 pd player;
#X obj 186 -44 tabplay~ file1;
#X obj 186 -106 bng 22 250 50 0 empty empty empty 17 7 0 10 -262144
-1 -1;
#X text 173 -126 2 Play;
#X obj 297 75 dac~;
#X obj 306 29 *~;
#X obj 374 14 hsl 128 15 0 2 0 0 empty empty empty -2 -6 0 10 -262144
-1 -1 2500 1;
#X msg 586 149 \; pd dsp 1;
#X msg 674 150 \; pd dsp 0;
#X text 603 183 ON;
#X text 691 183 OFF;
#X obj 306 1 +~;
#N canvas 0 0 450 300 (subpatch) 0;
#X array file1 2.11572e+006 float 2;
#X coords 0 1 2.11572e+006 -1 200 140 1;
#X restore 539 -80 graph;
#X obj 27 -18 bng 15 250 50 0 empty empty empty 17 7 0 10 -262144 -1
-1;
#X obj 73 16 bng 15 250 50 0 empty empty empty 17 7 0 10 -262144 -1
-1;
#X msg 146 28 stop;
#X connect 1 0 0 0;
#X connect 2 0 0 0;
#X connect 3 0 0 0;
#X connect 4 0 3 0;
#X connect 5 0 16 0;
#X connect 6 0 5 0;
#X connect 7 0 6 0;
#X connect 8 0 7 0;
#X connect 11 0 10 0;
#X connect 11 0 14 0;
#X connect 12 0 9 0;
#X connect 12 0 13 0;
#X connect 13 0 6 0;
#X connect 14 0 6 0;
#X connect 15 0 23 0;
#X connect 17 0 25 0;
#X connect 18 0 22 0;
#X connect 18 1 20 0;
#X connect 18 2 20 1;
#X connect 19 0 24 0;
#X connect 20 0 21 0;
#X connect 21 0 19 0;
#X connect 22 0 6 0;
#X connect 23 0 18 0;
#X connect 24 0 6 1;
#X connect 25 0 19 0;
#X connect 26 0 27 0;
#X connect 28 0 38 0;
#X connect 29 0 28 0;
#X connect 32 0 31 0;
#X connect 32 0 31 1;
#X connect 33 0 32 1;
#X connect 38 0 32 0;
#X connect 40 0 1 0;
#X connect 40 0 29 0;
#X connect 41 0 2 0;
#X connect 41 0 42 0;
#X connect 42 0 28 0;
